<svg width="16" height="17" viewBox="0 0 16 17" fill="none" xmlns="http://www.w3.org/2000/svg">
<path d="M6.87066 14.5833C5.59733 14.5833 4.41132 14.0973 3.53065 13.2146C1.67332 11.352 1.70211 8.29264 3.59478 6.3953L7.41346 2.56598C8.0448 1.93265 8.88537 1.58398 9.7787 1.58398C10.672 1.58398 11.5128 1.93265 12.1441 2.56598C13.4468 3.87265 13.4468 5.99865 12.1441 7.30532L8.30669 11.1526C7.58136 11.8806 6.31546 11.8813 5.58746 11.1526C4.83879 10.402 4.83879 9.18064 5.58746 8.42997L8.95806 5.04999C9.15339 4.85465 9.47008 4.85398 9.66542 5.04932C9.86142 5.24398 9.86139 5.56065 9.66672 5.75665L6.29611 9.13664C5.93545 9.49797 5.93545 10.086 6.29611 10.4473C6.64345 10.7966 7.25135 10.796 7.59869 10.4473L11.4361 6.59998C12.3508 5.68264 12.3508 4.18998 11.4361 3.27264C10.5508 2.38464 9.00746 2.38464 8.12212 3.27264L4.30344 7.10199C2.82411 8.58466 2.79531 11.0613 4.23931 12.5093C4.93064 13.2027 5.86466 13.584 6.87066 13.584C7.90199 13.584 8.90665 13.1693 9.62798 12.446L12.9794 9.08466C13.174 8.88932 13.4907 8.88865 13.6867 9.08398C13.8827 9.27865 13.8827 9.59532 13.688 9.79132L10.3366 13.1526C9.42864 14.0613 8.16533 14.5833 6.87066 14.5833Z" fill="#212B36"/>
</svg>
