<svg width="14" height="14" viewBox="0 0 14 14" fill="none" xmlns="http://www.w3.org/2000/svg">
<path d="M3 7.01562V6.53125C3.48399 6.53125 3.82163 6.4401 4.01291 6.25781C4.20708 6.07552 4.30417 5.77083 4.30417 5.34375V4.09375C4.30417 3.73438 4.34185 3.42318 4.4172 3.16016C4.49545 2.89714 4.62152 2.67969 4.79541 2.50781C4.9693 2.33594 5.20115 2.20833 5.49097 2.125C5.78078 2.04167 6.1387 2 6.56473 2V2.76563C6.22855 2.76563 5.96337 2.8125 5.76919 2.90625C5.57791 3 5.4417 3.14583 5.36055 3.34375C5.2823 3.53906 5.24317 3.78906 5.24317 4.09375V5.65625C5.24317 5.85938 5.21274 6.04427 5.15188 6.21094C5.09392 6.3776 4.98524 6.52083 4.82584 6.64062C4.66644 6.76042 4.43893 6.85286 4.14332 6.91797C3.85061 6.98307 3.4695 7.01562 3 7.01562ZM6.56473 12C6.1387 12 5.78078 11.9583 5.49097 11.875C5.20115 11.7917 4.9693 11.6641 4.79541 11.4922C4.62152 11.3203 4.49545 11.1029 4.4172 10.8398C4.34185 10.5768 4.30417 10.2656 4.30417 9.90625V8.65625C4.30417 8.22917 4.20708 7.92448 4.01291 7.74219C3.82163 7.5599 3.48399 7.46875 3 7.46875V6.98438C3.4695 6.98438 3.85061 7.01693 4.14332 7.08203C4.43893 7.14714 4.66644 7.23958 4.82584 7.35937C4.98524 7.47917 5.09392 7.6224 5.15188 7.78906C5.21274 7.95573 5.24317 8.14062 5.24317 8.34375V9.90625C5.24317 10.2109 5.2823 10.4609 5.36055 10.6562C5.4417 10.8516 5.57791 10.9961 5.76919 11.0898C5.96337 11.1862 6.22855 11.2344 6.56473 11.2344V12ZM3 7.46875V6.53125H4.02595V7.46875H3Z" fill="#6B6F76"/>
<path d="M7.43527 7.01562V6.53125C7.91926 6.53125 8.25689 6.4401 8.44817 6.25781C8.64235 6.07552 8.73944 5.77083 8.73944 5.34375V4.09375C8.73944 3.73438 8.77711 3.42318 8.85247 3.16016C8.93072 2.89714 9.05679 2.67969 9.23068 2.50781C9.40456 2.33594 9.63642 2.20833 9.92623 2.125C10.216 2.04167 10.574 2 11 2V2.76563C10.6638 2.76563 10.3986 2.8125 10.2045 2.90625C10.0132 3 9.87696 3.14583 9.79582 3.34375C9.71757 3.53906 9.67844 3.78906 9.67844 4.09375V5.65625C9.67844 5.85938 9.64801 6.04427 9.58715 6.21094C9.52919 6.3776 9.4205 6.52083 9.26111 6.64062C9.10171 6.76042 8.8742 6.85286 8.57859 6.91797C8.28588 6.98307 7.90477 7.01562 7.43527 7.01562ZM11 12C10.574 12 10.216 11.9583 9.92623 11.875C9.63642 11.7917 9.40456 11.6641 9.23068 11.4922C9.05679 11.3203 8.93072 11.1029 8.85247 10.8398C8.77711 10.5768 8.73944 10.2656 8.73944 9.90625V8.65625C8.73944 8.22917 8.64235 7.92448 8.44817 7.74219C8.25689 7.5599 7.91926 7.46875 7.43527 7.46875V6.98438C7.90477 6.98438 8.28588 7.01693 8.57859 7.08203C8.8742 7.14714 9.10171 7.23958 9.26111 7.35937C9.4205 7.47917 9.52919 7.6224 9.58715 7.78906C9.64801 7.95573 9.67844 8.14062 9.67844 8.34375V9.90625C9.67844 10.2109 9.71757 10.4609 9.79582 10.6562C9.87696 10.8516 10.0132 10.9961 10.2045 11.0898C10.3986 11.1862 10.6638 11.2344 11 11.2344V12ZM7.43527 7.46875V6.53125H8.46121V7.46875H7.43527Z" fill="#6B6F76"/>
</svg>
