<svg width="14" height="14" viewBox="0 0 14 14" fill="none" xmlns="http://www.w3.org/2000/svg">
<path d="M5.39583 3.20898C5.39583 2.96748 5.59183 2.77148 5.83333 2.77148H12.25C12.4915 2.77148 12.6875 2.96748 12.6875 3.20898C12.6875 3.45048 12.4915 3.64648 12.25 3.64648H5.83333C5.59183 3.64648 5.39583 3.45048 5.39583 3.20898ZM12.25 6.56315H5.83333C5.59183 6.56315 5.39583 6.75915 5.39583 7.00065C5.39583 7.24215 5.59183 7.43815 5.83333 7.43815H12.25C12.4915 7.43815 12.6875 7.24215 12.6875 7.00065C12.6875 6.75915 12.4915 6.56315 12.25 6.56315ZM12.25 10.3548H5.83333C5.59183 10.3548 5.39583 10.5508 5.39583 10.7923C5.39583 11.0338 5.59183 11.2298 5.83333 11.2298H12.25C12.4915 11.2298 12.6875 11.0338 12.6875 10.7923C12.6875 10.5508 12.4915 10.3548 12.25 10.3548ZM3.9375 3.20898C3.9375 3.9329 3.34892 4.52148 2.625 4.52148C1.90108 4.52148 1.3125 3.9329 1.3125 3.20898C1.3125 2.48507 1.90108 1.89648 2.625 1.89648C3.34892 1.89648 3.9375 2.48507 3.9375 3.20898ZM3.0625 3.20898C3.0625 2.96748 2.8665 2.77148 2.625 2.77148C2.3835 2.77148 2.1875 2.96748 2.1875 3.20898C2.1875 3.45048 2.3835 3.64648 2.625 3.64648C2.8665 3.64648 3.0625 3.45048 3.0625 3.20898ZM3.9375 7.00065C3.9375 7.72457 3.34892 8.31315 2.625 8.31315C1.90108 8.31315 1.3125 7.72457 1.3125 7.00065C1.3125 6.27674 1.90108 5.68815 2.625 5.68815C3.34892 5.68815 3.9375 6.27674 3.9375 7.00065ZM3.0625 7.00065C3.0625 6.75915 2.8665 6.56315 2.625 6.56315C2.3835 6.56315 2.1875 6.75915 2.1875 7.00065C2.1875 7.24215 2.3835 7.43815 2.625 7.43815C2.8665 7.43815 3.0625 7.24215 3.0625 7.00065ZM3.9375 10.7923C3.9375 11.5162 3.34892 12.1048 2.625 12.1048C1.90108 12.1048 1.3125 11.5162 1.3125 10.7923C1.3125 10.0684 1.90108 9.47982 2.625 9.47982C3.34892 9.47982 3.9375 10.0684 3.9375 10.7923ZM3.0625 10.7923C3.0625 10.5508 2.8665 10.3548 2.625 10.3548C2.3835 10.3548 2.1875 10.5508 2.1875 10.7923C2.1875 11.0338 2.3835 11.2298 2.625 11.2298C2.8665 11.2298 3.0625 11.0338 3.0625 10.7923Z" fill="#6B6F76"/>
</svg>
