<svg width="12" height="12" viewBox="0 0 12 12" fill="none" xmlns="http://www.w3.org/2000/svg">
<path d="M4.625 2.75C4.625 2.543 4.793 2.375 5 2.375H10.5C10.707 2.375 10.875 2.543 10.875 2.75C10.875 2.957 10.707 3.125 10.5 3.125H5C4.793 3.125 4.625 2.957 4.625 2.75ZM10.5 5.625H5C4.793 5.625 4.625 5.793 4.625 6C4.625 6.207 4.793 6.375 5 6.375H10.5C10.707 6.375 10.875 6.207 10.875 6C10.875 5.793 10.707 5.625 10.5 5.625ZM10.5 8.875H5C4.793 8.875 4.625 9.043 4.625 9.25C4.625 9.457 4.793 9.625 5 9.625H10.5C10.707 9.625 10.875 9.457 10.875 9.25C10.875 9.043 10.707 8.875 10.5 8.875ZM3.375 2.75C3.375 3.3705 2.8705 3.875 2.25 3.875C1.6295 3.875 1.125 3.3705 1.125 2.75C1.125 2.1295 1.6295 1.625 2.25 1.625C2.8705 1.625 3.375 2.1295 3.375 2.75ZM2.625 2.75C2.625 2.543 2.457 2.375 2.25 2.375C2.043 2.375 1.875 2.543 1.875 2.75C1.875 2.957 2.043 3.125 2.25 3.125C2.457 3.125 2.625 2.957 2.625 2.75ZM3.375 6C3.375 6.6205 2.8705 7.125 2.25 7.125C1.6295 7.125 1.125 6.6205 1.125 6C1.125 5.3795 1.6295 4.875 2.25 4.875C2.8705 4.875 3.375 5.3795 3.375 6ZM2.625 6C2.625 5.793 2.457 5.625 2.25 5.625C2.043 5.625 1.875 5.793 1.875 6C1.875 6.207 2.043 6.375 2.25 6.375C2.457 6.375 2.625 6.207 2.625 6ZM3.375 9.25C3.375 9.8705 2.8705 10.375 2.25 10.375C1.6295 10.375 1.125 9.8705 1.125 9.25C1.125 8.6295 1.6295 8.125 2.25 8.125C2.8705 8.125 3.375 8.6295 3.375 9.25ZM2.625 9.25C2.625 9.043 2.457 8.875 2.25 8.875C2.043 8.875 1.875 9.043 1.875 9.25C1.875 9.457 2.043 9.625 2.25 9.625C2.457 9.625 2.625 9.457 2.625 9.25Z" fill="#0E0E10"/>
</svg>
