<svg width="14" height="14" viewBox="0 0 14 14" fill="none" xmlns="http://www.w3.org/2000/svg">
<path d="M6.99935 13.2682C3.54135 13.2682 0.728516 10.4554 0.728516 6.9974C0.728516 3.5394 3.54135 0.726562 6.99935 0.726562C10.4573 0.726562 13.2702 3.5394 13.2702 6.9974C13.2702 10.4554 10.4573 13.2682 6.99935 13.2682ZM6.99935 1.60156C4.02377 1.60156 1.60352 4.02181 1.60352 6.9974C1.60352 9.97298 4.02377 12.3932 6.99935 12.3932C9.97493 12.3932 12.3952 9.97298 12.3952 6.9974C12.3952 4.02181 9.97493 1.60156 6.99935 1.60156ZM7.43685 9.6224V6.95595C7.43685 6.71445 7.24085 6.51845 6.99935 6.51845C6.75785 6.51845 6.56185 6.71445 6.56185 6.95595V9.6224C6.56185 9.8639 6.75785 10.0599 6.99935 10.0599C7.24085 10.0599 7.43685 9.8639 7.43685 9.6224ZM7.59436 4.95573C7.59436 4.63373 7.33361 4.3724 7.01103 4.3724H7.00519C6.68319 4.3724 6.4247 4.63373 6.4247 4.95573C6.4247 5.27773 6.68903 5.53906 7.01103 5.53906C7.33303 5.53906 7.59436 5.27773 7.59436 4.95573Z" fill="#6B6F76"/>
</svg>
