<svg width="16" height="15" viewBox="0 0 16 15" fill="none" xmlns="http://www.w3.org/2000/svg">
<path d="M13.9697 0.808594C13.893 0.810338 13.8199 0.841304 13.7652 0.895164L12.561 2.09942C12.533 2.12739 12.5108 2.16059 12.4956 2.19714C12.4805 2.23369 12.4727 2.27287 12.4727 2.31244C12.4727 2.35201 12.4805 2.39119 12.4956 2.42774C12.5108 2.46429 12.533 2.4975 12.561 2.52546L14.0606 4.02511C14.117 4.08095 14.1931 4.11229 14.2725 4.11229C14.3519 4.11229 14.428 4.08095 14.4844 4.02511L15.6886 2.82084C15.7445 2.76447 15.7758 2.68832 15.7758 2.60896C15.7758 2.52961 15.7445 2.45346 15.6886 2.39708L14.189 0.897436C14.1599 0.868717 14.1252 0.84623 14.0871 0.831346C14.049 0.816462 14.0083 0.809494 13.9675 0.810866L13.9697 0.808594ZM13.9788 1.53456L15.057 2.61271L14.2799 3.3898L13.2017 2.31165L13.9788 1.53456Z" fill="#212B36"/>
<path d="M14.3096 3.51172C14.2334 3.51461 14.1611 3.54632 14.1073 3.60045L8.60864 9.09915L7.53049 8.02099L8.66658 6.8849C8.72243 6.82852 8.75377 6.75237 8.75377 6.67302C8.75377 6.59366 8.72243 6.51751 8.66658 6.46113C8.63862 6.43314 8.60542 6.41093 8.56887 6.39577C8.53231 6.38062 8.49313 6.37282 8.45357 6.37282C8.414 6.37282 8.37482 6.38062 8.33827 6.39577C8.30172 6.41093 8.26851 6.43314 8.24055 6.46113L8.08945 6.60996L6.88519 7.81422C6.85719 7.84218 6.83498 7.87539 6.81983 7.91194C6.80467 7.94849 6.79688 7.98767 6.79688 8.02724C6.79688 8.06681 6.80467 8.10599 6.81983 8.14254C6.83498 8.17909 6.85719 8.2123 6.88519 8.24026L8.38483 9.7399C8.44121 9.79575 8.51736 9.82708 8.59671 9.82708C8.67607 9.82708 8.75222 9.79575 8.8086 9.7399L14.5232 4.02535C14.579 3.96897 14.6103 3.89282 14.6103 3.81347C14.6103 3.73411 14.579 3.65796 14.5232 3.60158C14.4942 3.57248 14.4596 3.54959 14.4216 3.53433C14.3835 3.51907 14.3426 3.51176 14.3016 3.51285L14.3096 3.51172Z" fill="#212B36"/>
<path d="M9.19673 5.61328C9.15701 5.61313 9.11764 5.62085 9.08091 5.63598C9.04418 5.65112 9.0108 5.67337 8.98271 5.70146C8.95462 5.72955 8.93236 5.76293 8.91723 5.79966C8.9021 5.83639 8.89438 5.87576 8.89453 5.91548C8.89468 5.95502 8.90262 5.99414 8.91788 6.03061C8.93315 6.06708 8.95545 6.10019 8.98352 6.12804C9.01158 6.15589 9.04485 6.17794 9.08143 6.19293C9.11802 6.20792 9.1572 6.21556 9.19673 6.21541C9.27619 6.21511 9.3523 6.18342 9.40849 6.12724C9.46467 6.07105 9.49636 5.99494 9.49666 5.91548C9.49681 5.87595 9.48917 5.83677 9.47418 5.80019C9.45919 5.7636 9.43714 5.73033 9.40929 5.70227C9.38144 5.6742 9.34833 5.6519 9.31186 5.63663C9.27539 5.62137 9.23627 5.61343 9.19673 5.61328Z" fill="#212B36"/>
<path d="M12.8335 2.01189C12.7569 2.01371 12.6744 2.04552 12.6199 2.09937L9.7683 4.95097C9.65015 5.06799 9.65015 5.25999 9.7683 5.37701C9.88532 5.49516 10.0773 5.49516 10.1943 5.37701L13.0459 2.52541C13.1641 2.40839 13.1641 2.21639 13.0459 2.09937C12.9871 2.0412 12.9164 2.00905 12.8335 2.01189Z" fill="#212B36"/>
<path d="M7.12005 7.71509C6.99054 7.70986 6.88375 7.78871 6.83717 7.90936L5.93624 10.3179C5.84456 10.5599 6.08053 10.7962 6.32252 10.7064L8.73104 9.80323C8.88554 9.74472 8.96393 9.5726 8.90599 9.41696C8.84839 9.26131 8.67537 9.18179 8.51972 9.23973L6.73605 9.91002L7.40635 8.12636C7.46406 7.97185 7.38579 7.79916 7.23139 7.74008C7.20072 7.72906 7.158 7.72191 7.12551 7.72111L7.12005 7.71509Z" fill="#212B36"/>
<path d="M14.3095 3.51214C14.2333 3.51504 14.161 3.54675 14.1073 3.60087C14.0514 3.65725 14.0201 3.7334 14.0201 3.81275C14.0201 3.89211 14.0514 3.96826 14.1073 4.02464L14.4958 4.41318L12.3032 6.60584C12.2752 6.63381 12.253 6.66701 12.2378 6.70356C12.2226 6.74011 12.2148 6.77929 12.2148 6.81886C12.2148 6.85843 12.2226 6.89761 12.2378 6.93416C12.253 6.97071 12.2752 7.00392 12.3032 7.03188C12.3595 7.08773 12.4357 7.11906 12.515 7.11906C12.5944 7.11906 12.6705 7.08773 12.7269 7.03188L15.1354 4.62336C15.1913 4.56698 15.2226 4.49083 15.2226 4.41148C15.2226 4.33212 15.1913 4.25597 15.1354 4.1996L14.5344 3.5986C14.5055 3.56949 14.4709 3.54661 14.4328 3.53135C14.3947 3.51609 14.3539 3.50878 14.3129 3.50987L14.3095 3.51214Z" fill="#212B36"/>
<path fill-rule="evenodd" clip-rule="evenodd" d="M2.93716 1.60318C2.4629 1.60318 2.04654 1.74821 1.73365 2.01064C1.42077 2.27192 1.21382 2.63335 1.08447 3.05117C0.823325 3.88797 0.847962 4.97339 1.03631 6.17045C1.23956 7.4596 1.65592 8.85235 2.16467 10.1875C1.52288 11.4652 0.797334 12.7658 0.0459137 13.9399C0.0016921 14.0093 -0.0112371 14.0923 0.00996409 14.1707C0.0311653 14.249 0.0847645 14.3163 0.158996 14.3577C0.23309 14.3983 0.32132 14.41 0.404562 14.3902C0.487804 14.3704 0.559349 14.3208 0.603689 14.252C1.27504 13.2069 1.89712 12.0536 2.50072 10.9026C2.86164 11.7578 3.22134 12.6406 3.63154 13.3312C3.66246 13.3826 3.70865 13.4245 3.76452 13.4519C3.82039 13.4793 3.88355 13.4909 3.94636 13.4854C4.00918 13.48 4.06895 13.4576 4.11845 13.4211C4.16795 13.3845 4.20506 13.3354 4.22529 13.2795L5.6 9.99961L6 10.5996L6.64285 10.4145L5.83035 9.06198C5.80157 9.00813 5.75638 8.96345 5.70047 8.93355C5.64456 8.90365 5.58043 8.88987 5.51616 8.89396C5.45189 8.89804 5.39035 8.91981 5.33929 8.95651C5.28823 8.99321 5.24993 9.0432 5.22922 9.1002L3.86682 12.3226C3.51944 11.6711 3.18562 10.9759 2.88259 10.2047C3.56749 8.81195 4.13906 7.43071 4.49629 6.1876C4.85106 4.95601 5.00627 3.87404 4.80918 3.03379C4.71088 2.61366 4.51723 2.24649 4.19572 1.98866C3.87421 1.72968 3.43937 1.59961 2.92693 1.59961L2.93716 1.60318ZM3.7748 2.45494C3.5851 2.3022 3.32765 2.20977 2.93716 2.20977L2.93765 2.21322C2.59766 2.21322 2.36238 2.303 2.16775 2.4653C1.97312 2.62759 1.81766 2.88197 1.71074 3.22498C1.49714 3.90408 1.50083 4.9308 1.68191 6.07952C1.84329 7.10394 2.17834 8.22274 2.55529 9.31391C3.08621 8.17439 3.58633 7.03027 3.87335 6.03348C4.21482 4.84792 4.33036 3.82696 4.17638 3.16742C4.09878 2.83823 3.96451 2.60802 3.7748 2.45494Z" fill="#212B36"/>
</svg>
