<svg width="12" height="15" viewBox="0 0 12 15" fill="none" xmlns="http://www.w3.org/2000/svg">
  <path
    d="M8.74432 4.18182C8.66761 3.53409 8.35653 3.03125 7.81108 2.6733C7.26563 2.31534 6.59659 2.13636 5.80398 2.13636C5.22443 2.13636 4.71733 2.23011 4.28267 2.41761C3.85227 2.60511 3.51563 2.86293 3.27273 3.19105C3.03409 3.51918 2.91477 3.89204 2.91477 4.30966C2.91477 4.65909 2.99787 4.95952 3.16406 5.21094C3.33452 5.4581 3.55185 5.66477 3.81605 5.83097C4.08026 5.9929 4.35724 6.12713 4.64702 6.23366C4.93679 6.33594 5.20312 6.41903 5.44602 6.48295L6.77557 6.84091C7.11648 6.9304 7.49574 7.05398 7.91335 7.21165C8.33523 7.36932 8.73793 7.58452 9.12145 7.85724C9.50923 8.12571 9.82884 8.47088 10.0803 8.89276C10.3317 9.31463 10.4574 9.83239 10.4574 10.446C10.4574 11.1534 10.272 11.7926 9.90128 12.3636C9.5348 12.9347 8.99787 13.3885 8.29048 13.7251C7.58736 14.0618 6.73295 14.2301 5.72727 14.2301C4.78977 14.2301 3.97798 14.0788 3.2919 13.7763C2.61009 13.4737 2.07315 13.0518 1.68111 12.5107C1.29332 11.9695 1.07386 11.3409 1.02273 10.625H2.65909C2.7017 11.1193 2.8679 11.5284 3.15767 11.8523C3.4517 12.1719 3.82244 12.4105 4.26989 12.5682C4.72159 12.7216 5.20739 12.7983 5.72727 12.7983C6.33239 12.7983 6.87571 12.7003 7.35724 12.5043C7.83878 12.304 8.22017 12.027 8.50142 11.6733C8.78267 11.3153 8.9233 10.8977 8.9233 10.4205C8.9233 9.9858 8.80185 9.6321 8.55895 9.35938C8.31605 9.08665 7.99645 8.86506 7.60014 8.6946C7.20384 8.52415 6.77557 8.375 6.31534 8.24716L4.70455 7.78693C3.68182 7.4929 2.87216 7.07315 2.27557 6.5277C1.67898 5.98224 1.38068 5.26847 1.38068 4.38636C1.38068 3.65341 1.57884 3.0142 1.97514 2.46875C2.37571 1.91903 2.91264 1.4929 3.58594 1.19034C4.26349 0.883522 5.01989 0.730113 5.85511 0.730113C6.69886 0.730113 7.44886 0.881392 8.10511 1.18395C8.76136 1.48224 9.28125 1.89133 9.66477 2.41122C10.0526 2.93111 10.2571 3.52131 10.2784 4.18182H8.74432Z"
    fill="#212B36" />
  <path d="M0 8.10653H11.4801V9.33381H0V8.10653Z" fill="#212B36" />
</svg>
