<svg width="12" height="12" viewBox="0 0 12 12" fill="none" xmlns="http://www.w3.org/2000/svg">
<path d="M2.25 6C2.25 5.17157 2.92157 4.5 3.75 4.5C4.57843 4.5 5.25 5.17157 5.25 6C5.25 6.82843 4.57843 7.5 3.75 7.5C2.92157 7.5 2.25 6.82843 2.25 6ZM2.25 1.5C2.25 0.671573 2.92157 0 3.75 0C4.57843 0 5.25 0.671573 5.25 1.5C5.25 2.32843 4.57843 3 3.75 3C2.92157 3 2.25 2.32843 2.25 1.5ZM2.25 10.5C2.25 9.67157 2.92157 9 3.75 9C4.57843 9 5.25 9.67157 5.25 10.5C5.25 11.3284 4.57843 12 3.75 12C2.92157 12 2.25 11.3284 2.25 10.5ZM6.75 6C6.75 5.17157 7.42157 4.5 8.25 4.5C9.07843 4.5 9.75 5.17157 9.75 6C9.75 6.82843 9.07843 7.5 8.25 7.5C7.42157 7.5 6.75 6.82843 6.75 6ZM6.75 1.5C6.75 0.671573 7.42157 0 8.25 0C9.07843 0 9.75 0.671573 9.75 1.5C9.75 2.32843 9.07843 3 8.25 3C7.42157 3 6.75 2.32843 6.75 1.5ZM6.75 10.5C6.75 9.67157 7.42157 9 8.25 9C9.07843 9 9.75 9.67157 9.75 10.5C9.75 11.3284 9.07843 12 8.25 12C7.42157 12 6.75 11.3284 6.75 10.5Z" fill="#C9CBCD"/>
</svg>
