<svg width="16" height="16" viewBox="0 0 16 16" fill="none" xmlns="http://www.w3.org/2000/svg">
<path d="M10.8004 2.24023H12.2004C12.5717 2.24023 12.9278 2.39195 13.1903 2.662C13.4529 2.93206 13.6004 3.29833 13.6004 3.68025V13.7603C13.6004 14.1423 13.4529 14.5085 13.1903 14.7786C12.9278 15.0486 12.5717 15.2004 12.2004 15.2004H3.80039C3.42909 15.2004 3.07299 15.0486 2.81044 14.7786C2.54789 14.5085 2.40039 14.1423 2.40039 13.7603V3.68025C2.40039 3.29833 2.54789 2.93206 2.81044 2.662C3.07299 2.39195 3.42909 2.24023 3.80039 2.24023H5.20039" stroke="#212B36" strokeLinecap="round" strokeLinejoin="round"/>
<path d="M10.1012 0.800781H5.90117C5.51457 0.800781 5.20117 1.12314 5.20117 1.52079V2.9608C5.20117 3.35845 5.51457 3.68081 5.90117 3.68081H10.1012C10.4878 3.68081 10.8012 3.35845 10.8012 2.9608V1.52079C10.8012 1.12314 10.4878 0.800781 10.1012 0.800781Z" stroke="#212B36" strokeLinecap="round" strokeLinejoin="round"/>
</svg>
