<svg width="14" height="14" viewBox="0 0 14 14" fill="none" xmlns="http://www.w3.org/2000/svg">
<path d="M2.786 5.82225H7.08575V8.55225C7.08575 9.59875 7.0175 9.68975 6.1985 9.7125V9.99687H8.99675V9.7125C8.18913 9.68975 8.12088 9.59875 8.12088 8.55225V3.19462C8.12088 2.13675 8.17775 2.0685 8.99675 2.03437V1.75H6.1985V2.03437C7.02888 2.0685 7.08575 2.13675 7.08575 3.19462V5.45825H2.786V3.19462C2.786 2.13675 2.84288 2.0685 3.67325 2.03437V1.75H0.875V2.03437C1.694 2.0685 1.75088 2.13675 1.75088 3.19462V8.55225C1.75088 9.61013 1.68263 9.68975 0.875 9.7125V9.99687H3.67325V9.7125C2.85425 9.68975 2.786 9.59875 2.786 8.55225V5.82225Z" fill="#6B6F76"/>
<path d="M10.5 12.25H13.125V12.0036C12.5769 11.9782 12.5385 11.9697 12.4231 11.8847C12.2885 11.7828 12.25 11.6129 12.25 11.0437V8.52063C12.25 7.5182 12.2788 6.79612 12.3269 6.125C11.8558 6.22694 11.2308 6.3034 10.5 6.34587V6.59223H10.8654C11.1058 6.59223 11.2212 6.60922 11.2981 6.66869C11.375 6.72816 11.375 6.72816 11.3942 7.46723V11.0437C11.3942 11.6553 11.3462 11.8337 11.1346 11.9187C11.0096 11.9697 10.9135 11.9782 10.5 12.0036V12.25Z" fill="#6B6F76"/>
</svg>
