<svg width="14" height="14" viewBox="0 0 14 14" fill="none" xmlns="http://www.w3.org/2000/svg">
<path d="M2.786 5.82225H7.08575V8.55225C7.08575 9.59875 7.0175 9.68975 6.1985 9.7125V9.99687H8.99675V9.7125C8.18913 9.68975 8.12088 9.59875 8.12088 8.55225V3.19462C8.12088 2.13675 8.17775 2.0685 8.99675 2.03437V1.75H6.1985V2.03437C7.02888 2.0685 7.08575 2.13675 7.08575 3.19462V5.45825H2.786V3.19462C2.786 2.13675 2.84288 2.0685 3.67325 2.03437V1.75H0.875V2.03437C1.694 2.0685 1.75088 2.13675 1.75088 3.19462V8.55225C1.75088 9.61013 1.68263 9.68975 0.875 9.7125V9.99687H3.67325V9.7125C2.85425 9.68975 2.786 9.59875 2.786 8.55225V5.82225Z" fill="#6B6F76"/>
<path d="M12.9302 12.25L13.125 10.78L12.9085 10.7209C12.7642 11.4305 12.5838 11.6164 12.0642 11.6164H9.97861C10.1085 11.1686 10.2528 10.9067 10.5704 10.5434C10.8879 10.1802 11.0827 10.0112 11.9848 9.36069C12.7858 8.78621 13.0528 8.35534 13.0528 7.65414C13.0528 7.26552 12.9807 7.00362 12.8219 6.75862C12.5477 6.3531 12.0425 6.125 11.4363 6.125C10.4693 6.125 9.74768 6.77552 9.74768 7.64569C9.74768 7.89069 9.84871 7.99207 10.1157 7.99207C10.3683 7.99207 10.4477 7.91603 10.4621 7.62879C10.4765 7.29931 10.491 7.18103 10.5343 7.01207C10.657 6.58966 10.9673 6.3531 11.393 6.3531C11.9776 6.3531 12.3745 6.83466 12.3745 7.54431C12.3745 7.79776 12.324 8.03431 12.2157 8.25397C12.1147 8.44828 11.9631 8.63414 11.6673 8.91293C10.7436 9.79155 10.4405 10.1295 10.159 10.6026C9.86314 11.0841 9.7116 11.5657 9.625 12.25H12.9302Z" fill="#6B6F76"/>
</svg>
