<svg width="14" height="14" viewBox="0 0 14 14" fill="none" xmlns="http://www.w3.org/2000/svg">
<path d="M2.786 5.82225H7.08575V8.55225C7.08575 9.59875 7.0175 9.68975 6.1985 9.7125V9.99687H8.99675V9.7125C8.18913 9.68975 8.12088 9.59875 8.12088 8.55225V3.19462C8.12088 2.13675 8.17775 2.0685 8.99675 2.03437V1.75H6.1985V2.03437C7.02888 2.0685 7.08575 2.13675 7.08575 3.19462V5.45825H2.786V3.19462C2.786 2.13675 2.84288 2.0685 3.67325 2.03437V1.75H0.875V2.03437C1.694 2.0685 1.75088 2.13675 1.75088 3.19462V8.55225C1.75088 9.61013 1.68263 9.68975 0.875 9.7125V9.99687H3.67325V9.7125C2.85425 9.68975 2.786 9.59875 2.786 8.55225V5.82225Z" fill="#6B6F76"/>
<path d="M11.6366 8.96845C11.9682 8.89406 12.1671 8.81967 12.3734 8.69568C12.7492 8.44771 12.9776 8.03441 12.9776 7.57153C12.9776 6.73667 12.2924 6.125 11.3566 6.125C10.4797 6.125 9.75026 6.71188 9.75026 7.41447C9.75026 7.63765 9.86816 7.72858 10.1408 7.72858C10.3987 7.72858 10.465 7.64592 10.4797 7.33181C10.5166 6.67055 10.7966 6.34818 11.3492 6.34818C11.7176 6.34818 11.9608 6.48043 12.1155 6.76147C12.2334 6.97638 12.2997 7.26569 12.2997 7.58806C12.2997 8.05921 12.1524 8.43117 11.8797 8.63782C11.6661 8.79487 11.3713 8.8858 11.0766 8.8858H10.7524V9.1503H11.0766C11.4082 9.1503 11.7176 9.2247 11.9313 9.34868C12.2482 9.5388 12.425 9.96862 12.425 10.5472C12.425 11.4813 11.9976 12.0268 11.2682 12.0268C10.9439 12.0268 10.6861 11.9194 10.5387 11.721C10.4061 11.5391 10.3692 11.3821 10.3545 10.9771C10.3397 10.7456 10.2587 10.663 10.045 10.663C9.75763 10.663 9.625 10.7869 9.625 11.0515C9.625 11.7375 10.3397 12.25 11.2976 12.25C12.3955 12.25 13.125 11.5722 13.125 10.5555C13.125 9.98516 12.8818 9.52227 12.4618 9.27429C12.2261 9.14204 12.005 9.07591 11.6366 9.04285V8.96845Z" fill="#6B6F76"/>
</svg>
