<svg width="12" height="12" viewBox="0 0 12 12" fill="none" xmlns="http://www.w3.org/2000/svg">
<g id="Icons">
<path id="link" d="M8.7832 7.14769C8.6877 7.14769 8.59168 7.11119 8.51868 7.03869C8.37218 6.89269 8.3712 6.65519 8.5177 6.50819L9.50122 5.51919C9.90522 5.12019 10.1257 4.5852 10.1257 4.0112C10.1257 3.4382 9.9042 2.90118 9.5022 2.49868C8.6702 1.66618 7.31518 1.66618 6.48218 2.49868L5.49878 3.48719C5.35278 3.63419 5.11526 3.63469 4.96826 3.48869C4.82176 3.34269 4.82067 3.10519 4.96667 2.95819L5.95117 1.96919C7.07767 0.843189 8.90773 0.844186 10.0322 1.96869C10.5762 2.51219 10.8757 3.2377 10.8757 4.0112C10.8757 4.7872 10.5758 5.5112 10.0312 6.0502L9.04968 7.0372C8.97568 7.1112 8.8797 7.14769 8.7832 7.14769ZM6.05029 10.0312L7.03967 9.04719C7.18617 8.90119 7.18727 8.66369 7.04077 8.51669C6.89477 8.36969 6.65725 8.36969 6.51025 8.51519L5.52075 9.5002C4.68875 10.3327 3.33373 10.3327 2.50073 9.5002C1.66823 8.6677 1.66824 7.3132 2.50024 6.4812L3.48975 5.49719C3.63625 5.35119 3.63722 5.11369 3.49072 4.96669C3.34472 4.81969 3.10721 4.81969 2.96021 4.96519L1.9707 5.95019C0.845703 7.07519 0.845703 8.90519 1.9707 10.0302C2.5337 10.5927 3.27273 10.8737 4.01123 10.8737C4.74973 10.8737 5.48829 10.5932 6.05029 10.0312ZM4.76575 7.76469L7.77869 4.75219C7.92519 4.60569 7.92519 4.36819 7.77869 4.22169C7.63269 4.07569 7.39529 4.07469 7.24829 4.22169L4.23523 7.23419C4.08873 7.38069 4.08873 7.61819 4.23523 7.76469C4.30823 7.83769 4.40424 7.87469 4.50024 7.87469C4.59624 7.87469 4.69275 7.83819 4.76575 7.76469Z" fill="#0E0E10"/>
</g>
</svg>
