<svg width="14" height="14" viewBox="0 0 14 14" fill="none" xmlns="http://www.w3.org/2000/svg">
<path d="M10.2467 8.33897C10.1353 8.33897 10.0233 8.29639 9.93813 8.21181C9.76721 8.04147 9.76608 7.76439 9.93699 7.59289L11.0844 6.43906C11.5558 5.97356 11.813 5.3494 11.813 4.67973C11.813 4.01123 11.5546 3.38472 11.0856 2.91513C10.1149 1.94388 8.53405 1.94388 7.56222 2.91513L6.41492 4.06839C6.24458 4.23989 5.96748 4.24047 5.79598 4.07014C5.62506 3.8998 5.6238 3.62272 5.79413 3.45122L6.94271 2.29739C8.25696 0.983721 10.392 0.984883 11.7039 2.2968C12.3386 2.93088 12.688 3.77731 12.688 4.67973C12.688 5.58506 12.338 6.42973 11.7028 7.05856L10.5576 8.21006C10.4713 8.2964 10.3593 8.33897 10.2467 8.33897ZM7.05835 11.703L8.21263 10.5551C8.38354 10.3847 8.38483 10.1076 8.21391 9.93614C8.04357 9.76464 7.76647 9.76464 7.59497 9.93439L6.44055 11.0836C5.46989 12.0548 3.88903 12.0548 2.9172 11.0836C1.94595 10.1123 1.94596 8.53206 2.91663 7.5614L4.07105 6.41339C4.24196 6.24305 4.2431 5.96597 4.07218 5.79447C3.90185 5.62297 3.62475 5.62297 3.45325 5.79272L2.29883 6.94189C0.986328 8.25439 0.986328 10.3894 2.29883 11.7019C2.95566 12.3581 3.81786 12.686 4.67944 12.686C5.54103 12.686 6.40268 12.3587 7.05835 11.703ZM5.55971 9.0588L9.07481 5.54423C9.24573 5.37331 9.24573 5.09622 9.07481 4.92531C8.90448 4.75497 8.62751 4.75381 8.45601 4.92531L4.94078 8.43989C4.76986 8.6108 4.76986 8.88789 4.94078 9.0588C5.02594 9.14397 5.13796 9.18714 5.24996 9.18714C5.36196 9.18714 5.47455 9.14456 5.55971 9.0588Z" fill="#6B6F76"/>
</svg>
