<svg width="14" height="14" viewBox="0 0 14 14" fill="none" xmlns="http://www.w3.org/2000/svg">
<path d="M4.375 10.0625H12.25M4.375 3.9375H12.25H4.375ZM4.375 7H12.25H4.375Z" stroke="#6B6F76" stroke-width="0.9" stroke-linecap="round" stroke-linejoin="round"/>
<path d="M0 9.1H2.8V8.87476C2.21538 8.85146 2.17436 8.84369 2.05128 8.76602C1.90769 8.67282 1.86667 8.51748 1.86667 7.99709V5.69029C1.86667 4.77379 1.89744 4.11359 1.94872 3.5C1.44615 3.5932 0.779487 3.66311 0 3.70194V3.92718H0.389744C0.646154 3.92718 0.769231 3.94272 0.851282 3.99709C0.933333 4.05146 0.933333 4.05146 0.953846 4.72718V7.99709C0.953846 8.55631 0.902564 8.71942 0.676923 8.79709C0.54359 8.84369 0.441026 8.85146 0 8.87476V9.1Z" fill="#6B6F76"/>
</svg>
