<svg width="12" height="12" viewBox="0 0 12 12" fill="none" xmlns="http://www.w3.org/2000/svg">
<path d="M3.75 8.625H10.5M3.75 3.375H10.5H3.75ZM3.75 6H10.5H3.75Z" stroke="#6B6F76" stroke-width="0.9" stroke-linecap="round" stroke-linejoin="round"/>
<path d="M0 7.8H2.4V7.60694C1.8989 7.58696 1.86374 7.58031 1.75824 7.51373C1.63517 7.43384 1.6 7.30069 1.6 6.85465V4.87739C1.6 4.09182 1.62637 3.52594 1.67033 3C1.23956 3.07989 0.668132 3.13981 0 3.17309V3.36616H0.334066C0.553846 3.36616 0.659341 3.37947 0.72967 3.42607C0.8 3.47268 0.8 3.47268 0.817582 4.05187V6.85465C0.817582 7.33398 0.773626 7.47379 0.58022 7.54036C0.465934 7.58031 0.378022 7.58696 0 7.60694V7.8Z" fill="#6B6F76"/>
</svg>
