<svg width="16" height="16" viewBox="0 0 16 16" fill="none" xmlns="http://www.w3.org/2000/svg">
<g id="Icons">
<path id="plus" d="M14.2007 8.00075C14.2007 8.33195 13.9319 8.60075 13.6007 8.60075H8.60075V13.6007C8.60075 13.9319 8.33195 14.2007 8.00075 14.2007C7.66956 14.2007 7.40076 13.9319 7.40076 13.6007V8.60075H2.40078C2.06958 8.60075 1.80078 8.33195 1.80078 8.00075C1.80078 7.66956 2.06958 7.40076 2.40078 7.40076H7.40076V2.40078C7.40076 2.06958 7.66956 1.80078 8.00075 1.80078C8.33195 1.80078 8.60075 2.06958 8.60075 2.40078V7.40076H13.6007C13.9319 7.40076 14.2007 7.66956 14.2007 8.00075Z" fill="#0E0E10"/>
</g>
</svg>
