<svg width="14" height="14" viewBox="0 0 14 14" fill="none" xmlns="http://www.w3.org/2000/svg">
<path d="M4.94082 3.80918C4.7699 3.63826 4.7699 3.36116 4.94082 3.19024L6.69082 1.44024C6.73107 1.39999 6.77956 1.36792 6.83323 1.34575C6.93998 1.30142 7.06073 1.30142 7.16748 1.34575C7.22115 1.36792 7.2695 1.39999 7.30975 1.44024L9.05975 3.19024C9.23067 3.36116 9.23067 3.63826 9.05975 3.80918C8.97459 3.89435 8.86257 3.9375 8.75057 3.9375C8.63857 3.9375 8.52655 3.89493 8.44139 3.80918L7.43807 2.80583V9.33333C7.43807 9.57483 7.24207 9.77083 7.00057 9.77083C6.75907 9.77083 6.56307 9.57483 6.56307 9.33333V2.8064L5.55975 3.80975C5.38825 3.98008 5.11173 3.9801 4.94082 3.80918ZM10.5 5.39583C10.2585 5.39583 10.0625 5.59183 10.0625 5.83333C10.0625 6.07483 10.2585 6.27083 10.5 6.27083C11.4199 6.27083 11.8125 6.66341 11.8125 7.58333V10.5C11.8125 11.4199 11.4199 11.8125 10.5 11.8125H3.5C2.58008 11.8125 2.1875 11.4199 2.1875 10.5V7.58333C2.1875 6.66341 2.58008 6.27083 3.5 6.27083C3.7415 6.27083 3.9375 6.07483 3.9375 5.83333C3.9375 5.59183 3.7415 5.39583 3.5 5.39583C2.0895 5.39583 1.3125 6.17283 1.3125 7.58333V10.5C1.3125 11.9105 2.0895 12.6875 3.5 12.6875H10.5C11.9105 12.6875 12.6875 11.9105 12.6875 10.5V7.58333C12.6875 6.17283 11.9105 5.39583 10.5 5.39583Z" fill="#6B6F76"/>
</svg>
